<svg width="70" height="86" viewBox="0 0 70 86" fill="none" xmlns="http://www.w3.org/2000/svg">
<path d="M11.6655 58.4026C7.05034 53.7875 3.9074 47.9075 2.63408 41.5061C1.36077 35.1047 2.01428 28.4695 4.51197 22.4396C7.00967 16.4096 11.2394 11.2557 16.6662 7.62962C22.093 4.00353 28.4732 2.06811 35 2.06811C41.5268 2.06811 47.907 4.00353 53.3338 7.62962C58.7606 11.2557 62.9903 16.4096 65.488 22.4396C67.9857 28.4695 68.6392 35.1047 67.3659 41.5061C66.0926 47.9075 62.9497 53.7875 58.3345 58.4026" stroke="#404040" stroke-width="3"/>
<g filter="url(#filter0_i_5_220)">
<circle cx="35" cy="35.0681" r="27" transform="rotate(-165 35 35.0681)" fill="#404040"/>
</g>
<circle cx="35" cy="35.0681" r="27" transform="rotate(-165 35 35.0681)" stroke="#737373" stroke-width="3"/>
<circle cx="22.0015" cy="50.7378" r="2.5" transform="rotate(-165 22.0015 50.7378)" fill="#737373"/>
<path d="M11.0742 78.0269V85.1362H9.8877V78.0269H11.0742ZM14.624 78.0269L12.2559 81.4595L10.835 83.2026L10.6104 81.9624L11.5918 80.5073L13.1885 78.0269H14.624ZM13.3203 85.1362L11.5186 81.7769L12.334 80.9321L14.7217 85.1362H13.3203ZM20.2051 78.0269V85.1362H19.043L16.5332 80.2144V85.1362H15.3857V78.0269H16.5332L19.0625 82.9829V78.0269H20.2051ZM26.3721 81.0005V82.2114C26.3721 82.7127 26.3135 83.1522 26.1963 83.5298C26.0824 83.9074 25.9163 84.2231 25.6982 84.4771C25.4834 84.7277 25.223 84.9165 24.917 85.0435C24.6143 85.1704 24.2757 85.2339 23.9014 85.2339C23.5303 85.2339 23.1917 85.1704 22.8857 85.0435C22.583 84.9165 22.321 84.7277 22.0996 84.4771C21.8815 84.2231 21.7122 83.9074 21.5918 83.5298C21.4746 83.1522 21.416 82.7127 21.416 82.2114V81.0005C21.416 80.4927 21.4746 80.0483 21.5918 79.6675C21.709 79.2834 21.8766 78.9627 22.0947 78.7056C22.3161 78.4484 22.5781 78.2547 22.8809 78.1245C23.1868 77.9943 23.5238 77.9292 23.8916 77.9292C24.266 77.9292 24.6045 77.9943 24.9072 78.1245C25.2132 78.2547 25.4753 78.4484 25.6934 78.7056C25.9115 78.9627 26.0791 79.2834 26.1963 79.6675C26.3135 80.0483 26.3721 80.4927 26.3721 81.0005ZM25.1953 82.2114V80.9907C25.1953 80.6294 25.166 80.3201 25.1074 80.063C25.0521 79.8026 24.9691 79.591 24.8584 79.4282C24.7477 79.2622 24.611 79.1401 24.4482 79.062C24.2887 78.9806 24.1032 78.9399 23.8916 78.9399C23.6865 78.9399 23.5026 78.9806 23.3398 79.062C23.1803 79.1401 23.0436 79.2622 22.9297 79.4282C22.819 79.591 22.7344 79.8026 22.6758 80.063C22.6204 80.3201 22.5928 80.6294 22.5928 80.9907V82.2114C22.5928 82.5662 22.6221 82.8722 22.6807 83.1294C22.7393 83.3833 22.8239 83.5916 22.9346 83.7544C23.0485 83.9139 23.1868 84.0327 23.3496 84.1108C23.5124 84.189 23.6963 84.228 23.9014 84.228C24.1097 84.228 24.2952 84.189 24.458 84.1108C24.6208 84.0327 24.7559 83.9139 24.8633 83.7544C24.974 83.5916 25.057 83.3833 25.1123 83.1294C25.1676 82.8722 25.1953 82.5662 25.1953 82.2114ZM29.8584 81.9331H28.4082L28.4033 81.0249H29.6875C29.8861 81.0249 30.0553 80.9858 30.1953 80.9077C30.3353 80.8296 30.4411 80.7157 30.5127 80.5659C30.5876 80.4162 30.625 80.2355 30.625 80.0239C30.625 79.7896 30.5924 79.5991 30.5273 79.4526C30.4622 79.3029 30.3597 79.1938 30.2197 79.1255C30.083 79.0571 29.9072 79.0229 29.6924 79.0229H28.7598V85.1362H27.5732V78.0269H29.6924C30.0244 78.0269 30.3206 78.0659 30.5811 78.144C30.8447 78.2189 31.0677 78.3345 31.25 78.4907C31.4323 78.647 31.5706 78.8472 31.665 79.0913C31.7627 79.3322 31.8115 79.6187 31.8115 79.9507C31.8115 80.2404 31.7497 80.5073 31.626 80.7515C31.5023 80.9924 31.3184 81.1909 31.0742 81.3472C30.8333 81.5002 30.5339 81.5913 30.1758 81.6206L29.8584 81.9331ZM29.8145 85.1362H28.0176L28.5645 84.145H29.8145C30.026 84.145 30.2002 84.0994 30.3369 84.0083C30.4736 83.9172 30.5762 83.7902 30.6445 83.6274C30.7129 83.4647 30.7471 83.2743 30.7471 83.0562C30.7471 82.8283 30.7178 82.6297 30.6592 82.4604C30.6006 82.2912 30.5062 82.161 30.376 82.0698C30.2458 81.9787 30.0732 81.9331 29.8584 81.9331H28.6621L28.6719 81.0249H30.2002L30.4736 81.3716C30.8154 81.3781 31.0938 81.4627 31.3086 81.6255C31.5234 81.785 31.6813 81.9917 31.7822 82.2456C31.8831 82.4995 31.9336 82.7713 31.9336 83.061C31.9336 83.5135 31.849 83.8944 31.6797 84.2036C31.5104 84.5096 31.2679 84.7424 30.9521 84.9019C30.6396 85.0581 30.2604 85.1362 29.8145 85.1362ZM39.2529 84.145V85.1362H36.2988V84.145H39.2529ZM36.6113 78.0269V85.1362H35.4248V78.0269H36.6113ZM42.749 79.0034L41.0303 85.1362H39.79L42.0459 78.0269H42.8174L42.749 79.0034ZM44.1211 85.1362L42.3975 79.0034L42.3145 78.0269H43.1006L45.3662 85.1362H44.1211ZM44.1504 82.4946V83.4907H40.8398V82.4946H44.1504ZM48.4619 81.9331H47.0117L47.0068 81.0249H48.291C48.4896 81.0249 48.6589 80.9858 48.7988 80.9077C48.9388 80.8296 49.0446 80.7157 49.1162 80.5659C49.1911 80.4162 49.2285 80.2355 49.2285 80.0239C49.2285 79.7896 49.196 79.5991 49.1309 79.4526C49.0658 79.3029 48.9632 79.1938 48.8232 79.1255C48.6865 79.0571 48.5107 79.0229 48.2959 79.0229H47.3633V85.1362H46.1768V78.0269H48.2959C48.6279 78.0269 48.9242 78.0659 49.1846 78.144C49.4482 78.2189 49.6712 78.3345 49.8535 78.4907C50.0358 78.647 50.1742 78.8472 50.2686 79.0913C50.3662 79.3322 50.415 79.6187 50.415 79.9507C50.415 80.2404 50.3532 80.5073 50.2295 80.7515C50.1058 80.9924 49.9219 81.1909 49.6777 81.3472C49.4368 81.5002 49.1374 81.5913 48.7793 81.6206L48.4619 81.9331ZM48.418 85.1362H46.6211L47.168 84.145H48.418C48.6296 84.145 48.8037 84.0994 48.9404 84.0083C49.0771 83.9172 49.1797 83.7902 49.248 83.6274C49.3164 83.4647 49.3506 83.2743 49.3506 83.0562C49.3506 82.8283 49.3213 82.6297 49.2627 82.4604C49.2041 82.2912 49.1097 82.161 48.9795 82.0698C48.8493 81.9787 48.6768 81.9331 48.4619 81.9331H47.2656L47.2754 81.0249H48.8037L49.0771 81.3716C49.4189 81.3781 49.6973 81.4627 49.9121 81.6255C50.127 81.785 50.2848 81.9917 50.3857 82.2456C50.4867 82.4995 50.5371 82.7713 50.5371 83.061C50.5371 83.5135 50.4525 83.8944 50.2832 84.2036C50.1139 84.5096 49.8714 84.7424 49.5557 84.9019C49.2432 85.0581 48.8639 85.1362 48.418 85.1362ZM55.6836 84.145V85.1362H52.5977V84.145H55.6836ZM52.9102 78.0269V85.1362H51.7236V78.0269H52.9102ZM55.2686 80.9858V81.9624H52.5977V80.9858H55.2686ZM55.6543 78.0269V79.0229H52.5977V78.0269H55.6543ZM60.4932 84.145V85.1362H57.5391V84.145H60.4932ZM57.8516 78.0269V85.1362H56.665V78.0269H57.8516Z" fill="#737373"/>
<defs>
<filter id="filter0_i_5_220" x="4.49292" y="2.56104" width="59.0141" height="61.0142" filterUnits="userSpaceOnUse" color-interpolation-filters="sRGB">
<feFlood flood-opacity="0" result="BackgroundImageFix"/>
<feBlend mode="normal" in="SourceGraphic" in2="BackgroundImageFix" result="shape"/>
<feColorMatrix in="SourceAlpha" type="matrix" values="0 0 0 0 0 0 0 0 0 0 0 0 0 0 0 0 0 0 127 0" result="hardAlpha"/>
<feOffset dx="-2" dy="-4"/>
<feGaussianBlur stdDeviation="2"/>
<feComposite in2="hardAlpha" operator="arithmetic" k2="-1" k3="1"/>
<feColorMatrix type="matrix" values="0 0 0 0 0 0 0 0 0 0 0 0 0 0 0 0 0 0 0.25 0"/>
<feBlend mode="normal" in2="shape" result="effect1_innerShadow_5_220"/>
</filter>
</defs>
</svg>
